<?xml version="1.0" standalone="no"?>
<!DOCTYPE svg PUBLIC "-//W3C//DTD SVG 20010904//EN"
 "http://www.w3.org/TR/2001/REC-SVG-20010904/DTD/svg10.dtd">
<svg version="1.0" xmlns="http://www.w3.org/2000/svg"
 width="96.000000pt" height="96.000000pt" viewBox="0 0 96.000000 96.000000"
 preserveAspectRatio="xMidYMid meet">
<metadata>
Created by potrace 1.16, written by Peter Selinger 2001-2019
</metadata>
<g transform="translate(0.000000,96.000000) scale(0.100000,-0.100000)"
fill="#ffffff" stroke="#000000">
<path d="M95 918 c-3 -7 -4 -173 -3 -368 l3 -355 117 -12 c101 -11 171 -28
241 -58 16 -7 17 14 17 352 l0 360 -48 26 c-83 45 -316 84 -327 55z"/>
<path d="M740 920 c-89 -11 -146 -27 -202 -58 l-48 -25 0 -360 c0 -338 1 -359
18 -352 69 30 139 47 240 58 l117 12 0 365 0 365 -30 1 c-16 1 -59 -2 -95 -6z"/>
<path d="M17 799 c-16 -9 -17 -37 -17 -364 l0 -354 22 -15 c18 -13 55 -16 190
-16 93 0 168 -4 168 -8 0 -17 60 -42 100 -42 40 0 100 25 100 42 0 4 75 8 168
8 135 0 172 3 190 16 l22 15 0 354 c0 340 -1 355 -19 365 -11 5 -24 10 -30 10
-8 0 -11 -95 -11 -303 0 -350 1 -347 -78 -347 -126 -1 -268 -33 -316 -71 l-26
-20 -26 20 c-48 38 -190 70 -316 71 -79 0 -78 -3 -78 347 0 317 0 317 -43 292z"/>
</g>
</svg>
